<?xml version="1.0" encoding="UTF-8"?>
<svg xmlns="http://www.w3.org/2000/svg" xmlns:xlink="http://www.w3.org/1999/xlink" width="370.48pt" height="325.48pt" viewBox="0 0 370.48 325.48" version="1.1">
<defs>
<clipPath id="clip1">
  <path d="M 0 0 L 370 0 L 370 324.996094 L 0 324.996094 Z M 0 0 "/>
</clipPath>
</defs>
<g id="surface1">
<g clip-path="url(#clip1)" clip-rule="nonzero">
<path style=" stroke:none;fill-rule:nonzero;fill:rgb(100%,100%,100%);fill-opacity:1;" d="M 0 325.480469 L 370.480469 325.480469 L 370.480469 -0.00390625 L 0 -0.00390625 Z M 0 325.480469 "/>
</g>
<path style=" stroke:none;fill-rule:nonzero;fill:rgb(13.699341%,12.199402%,12.5%);fill-opacity:1;" d="M 84.230469 162.875 C 83.96875 161.214844 83.699219 158.363281 83.699219 158.363281 C 83.507813 155.273438 81.292969 155.140625 81.292969 155.140625 C 78.578125 154.386719 74.734375 153.664063 74.734375 153.664063 C 72.40625 153.433594 72.222656 151.320313 72.222656 151.320313 C 71.835938 148.238281 72.035156 145.046875 72.035156 145.046875 L 72.035156 145.03125 C 72.035156 145.03125 72.160156 141.828125 72.867188 138.8125 C 72.867188 138.8125 73.265625 136.730469 75.609375 136.738281 C 75.609375 136.738281 80.023438 136.558594 81.824219 136.066406 C 81.824219 136.066406 84.003906 135.976563 85.027344 133.175781 C 85.027344 133.175781 85.574219 129.957031 85.8125 128.789063 L 85.828125 128.789063 C 86.050781 127.132813 86.621094 124.320313 86.621094 124.320313 C 87.335938 121.308594 85.238281 120.539063 85.238281 120.539063 C 82.867188 119.03125 79.402344 117.234375 79.402344 117.234375 C 77.226563 116.339844 77.664063 114.257813 77.664063 114.257813 C 78.1875 111.210938 79.300781 108.207031 79.300781 108.207031 L 79.300781 108.183594 C 79.300781 108.183594 80.347656 105.164063 81.90625 102.472656 C 81.90625 102.472656 82.882813 100.59375 85.128906 101.289063 C 85.128906 101.289063 89.402344 102.378906 91.277344 102.433594 C 91.277344 102.433594 93.378906 102.980469 95.175781 100.59375 C 95.175781 100.59375 96.621094 97.675781 97.191406 96.628906 L 97.183594 96.621094 C 97.953125 95.128906 99.421875 92.664063 99.421875 92.664063 C 101.089844 90.0625 99.375 88.632813 99.375 88.632813 C 97.628906 86.433594 94.960938 83.582031 94.960938 83.582031 C 93.207031 82.015625 94.308594 80.207031 94.308594 80.207031 C 95.808594 77.488281 97.851563 75.027344 97.851563 75.027344 L 97.859375 75.019531 C 97.859375 75.019531 99.84375 72.511719 102.203125 70.480469 C 102.203125 70.480469 103.75 69.03125 105.640625 70.429688 C 105.640625 70.429688 109.3125 72.878906 111.050781 73.558594 C 111.050781 73.558594 112.859375 74.765625 115.351563 73.097656 C 115.351563 73.097656 117.679688 70.828125 118.578125 70.035156 L 118.59375 70.019531 C 119.800781 68.859375 122 67.015625 122 67.015625 C 124.421875 65.109375 123.277344 63.1875 123.277344 63.1875 C 122.34375 60.535156 120.753906 56.96875 120.753906 56.96875 C 119.617188 54.921875 121.246094 53.570313 121.246094 53.570313 C 123.5625 51.496094 126.304688 49.832031 126.304688 49.832031 C 126.304688 49.832031 129.011719 48.117188 131.894531 46.972656 C 131.894531 46.972656 133.832031 46.113281 135.164063 48.050781 C 135.164063 48.050781 137.835938 51.578125 139.265625 52.785156 C 139.265625 52.785156 140.566406 54.523438 143.464844 53.769531 C 143.464844 53.769531 146.417969 52.386719 147.507813 51.921875 L 147.515625 51.910156 C 149.007813 51.132813 151.628906 49.957031 151.628906 49.957031 C 154.496094 48.800781 153.90625 46.640625 153.90625 46.640625 C 153.742188 43.828125 153.199219 39.96875 153.199219 39.96875 C 152.660156 37.683594 154.605469 36.832031 154.605469 36.832031 C 157.394531 35.472656 160.492188 34.632813 160.492188 34.632813 L 160.5 34.621094 C 160.5 34.621094 165.4375 33.320313 168.328125 33.210938 L 168.113281 33.203125 L 174.984375 56.722656 C 129.28125 62.195313 93.855469 101.101563 93.855469 148.277344 C 93.855469 161.40625 96.605469 173.882813 101.542969 185.191406 L 79.777344 191.488281 L 79.417969 190.804688 C 77.800781 187.664063 76.3125 182.664063 76.3125 182.664063 L 76.304688 182.648438 C 76.304688 182.648438 75.417969 179.574219 75.132813 176.484375 C 75.132813 176.484375 74.84375 174.390625 77.078125 173.644531 C 77.078125 173.644531 81.207031 172.070313 82.769531 171.046875 C 82.769531 171.046875 84.796875 170.273438 84.882813 167.289063 C 84.882813 167.289063 84.382813 164.058594 84.246094 162.875 L 84.230469 162.875 "/>
<path style=" stroke:none;fill-rule:nonzero;fill:rgb(13.699341%,12.199402%,12.5%);fill-opacity:1;" d="M 223.550781 52.898438 C 225.109375 53.515625 227.714844 54.730469 227.714844 54.730469 C 230.460938 56.136719 231.707031 54.292969 231.707031 54.292969 C 233.742188 52.324219 236.296875 49.394531 236.296875 49.394531 C 237.679688 47.488281 239.59375 48.410156 239.59375 48.410156 C 242.453125 49.625 245.097656 51.417969 245.097656 51.417969 L 245.121094 51.417969 C 245.121094 51.417969 247.796875 53.152344 250.054688 55.296875 C 250.054688 55.296875 251.648438 56.683594 250.449219 58.710938 C 250.449219 58.710938 248.378906 62.609375 247.882813 64.417969 C 247.882813 64.417969 246.851563 66.332031 248.75 68.644531 C 248.75 68.644531 251.25 70.730469 252.132813 71.542969 C 253.441406 72.582031 255.585938 74.496094 255.585938 74.496094 C 257.816406 76.640625 259.550781 75.21875 259.550781 75.21875 C 262.050781 73.933594 265.347656 71.859375 265.347656 71.859375 C 267.230469 70.445313 268.785156 71.867188 268.785156 71.867188 C 271.167969 73.867188 273.191406 76.347656 273.191406 76.347656 L 273.199219 76.355469 C 273.199219 76.355469 275.273438 78.792969 276.804688 81.484375 C 276.804688 81.484375 277.933594 83.289063 276.203125 84.875 C 276.203125 84.875 273.097656 88.003906 272.089844 89.585938 C 272.089844 89.585938 270.558594 91.132813 271.707031 93.890625 C 271.707031 93.890625 273.492188 96.613281 274.105469 97.636719 L 274.113281 97.636719 C 275.011719 99.058594 276.402344 101.570313 276.402344 101.570313 C 277.789063 104.324219 279.886719 103.570313 279.886719 103.570313 C 282.683594 103.179688 286.480469 102.316406 286.480469 102.316406 C 288.726563 101.601563 289.726563 103.464844 289.726563 103.464844 C 291.316406 106.132813 292.394531 109.136719 292.394531 109.136719 L 292.402344 109.160156 C 292.402344 109.160156 293.554688 112.144531 294.109375 115.203125 C 294.109375 115.203125 294.578125 117.269531 292.425781 118.199219 C 292.425781 118.199219 288.449219 120.117188 286.980469 121.285156 C 286.980469 121.285156 285.019531 122.222656 285.183594 125.210938 C 285.183594 125.210938 285.96875 128.371094 286.210938 129.535156 L 286.210938 129.5625 C 286.589844 131.195313 287.074219 134.023438 287.074219 134.023438 C 287.488281 137.089844 289.71875 137.058594 289.71875 137.058594 C 292.480469 137.605469 296.363281 138.042969 296.363281 138.042969 C 298.707031 138.097656 299.042969 140.1875 299.042969 140.1875 C 299.660156 143.226563 299.699219 146.429688 299.699219 146.429688 L 299.71875 146.453125 C 299.71875 146.453125 299.8125 149.644531 299.34375 152.710938 C 299.34375 152.710938 299.105469 154.8125 296.761719 154.972656 C 296.761719 154.972656 292.371094 155.496094 290.609375 156.117188 C 290.609375 156.117188 288.4375 156.371094 287.613281 159.238281 C 287.613281 159.238281 287.328125 162.476563 287.167969 163.660156 L 287.167969 163.683594 C 287.089844 165.351563 286.765625 168.210938 286.765625 168.210938 C 286.328125 171.277344 288.480469 171.855469 288.480469 171.855469 C 290.980469 173.144531 294.59375 174.621094 294.59375 174.621094 C 296.835938 175.324219 296.578125 177.429688 296.578125 177.429688 C 296.34375 180.519531 295.5 183.617188 295.5 183.617188 L 295.5 183.625 C 295.5 183.625 294.125 188.550781 292.761719 191.089844 L 292.871094 190.90625 L 269.109375 184.925781 C 287.542969 142.75 271.9375 92.492188 231.257813 68.605469 C 219.945313 61.957031 207.789063 57.996094 195.542969 56.527344 L 201.140625 34.566406 L 201.894531 34.601563 C 205.421875 34.804688 210.496094 36.0625 210.496094 36.0625 L 210.511719 36.0625 C 210.511719 36.0625 213.609375 36.847656 216.429688 38.164063 C 216.429688 38.164063 218.375 38.992188 217.890625 41.277344 C 217.890625 41.277344 217.152344 45.628906 217.253906 47.503906 C 217.253906 47.503906 216.882813 49.648438 219.414063 51.238281 C 219.414063 51.238281 222.449219 52.4375 223.535156 52.910156 L 223.550781 52.898438 "/>
<path style=" stroke:none;fill-rule:nonzero;fill:rgb(13.699341%,12.199402%,12.5%);fill-opacity:1;" d="M 249.304688 228.625 C 247.996094 229.675781 245.660156 231.351563 245.660156 231.351563 C 243.089844 233.058594 244.089844 235.050781 244.089844 235.050781 C 244.796875 237.785156 246.105469 241.460938 246.105469 241.460938 C 247.074219 243.597656 245.34375 244.8125 245.34375 244.8125 C 242.871094 246.695313 240.015625 248.140625 240.015625 248.140625 L 240.007813 248.140625 C 240.007813 248.140625 237.179688 249.640625 234.210938 250.542969 C 234.210938 250.542969 232.210938 251.246094 231.03125 249.210938 C 231.03125 249.210938 228.65625 245.488281 227.332031 244.167969 C 227.332031 244.167969 226.164063 242.332031 223.21875 242.859375 C 223.21875 242.859375 220.167969 244 219.035156 244.375 C 217.484375 245.011719 214.761719 245.929688 214.761719 245.929688 C 211.808594 246.828125 212.195313 249.027344 212.195313 249.027344 C 212.085938 251.839844 212.269531 255.730469 212.269531 255.730469 C 212.578125 258.058594 210.566406 258.726563 210.566406 258.726563 C 207.671875 259.820313 204.519531 260.367188 204.519531 260.367188 L 204.492188 260.375 C 204.492188 260.375 201.355469 260.980469 198.253906 261.003906 C 198.253906 261.003906 196.132813 261.089844 195.601563 258.8125 C 195.601563 258.8125 194.398438 254.554688 193.511719 252.902344 C 193.511719 252.902344 192.921875 250.808594 189.953125 250.457031 C 189.953125 250.457031 186.703125 250.679688 185.515625 250.703125 L 185.515625 250.71875 C 183.832031 250.808594 180.964844 250.769531 180.964844 250.769531 C 177.875 250.640625 177.511719 252.839844 177.511719 252.839844 C 176.476563 255.460938 175.355469 259.195313 175.355469 259.195313 C 174.878906 261.503906 172.769531 261.464844 172.769531 261.464844 C 169.664063 261.527344 166.503906 261.003906 166.503906 261.003906 L 166.496094 261.003906 C 166.496094 261.003906 163.316406 260.535156 160.394531 259.519531 C 160.394531 259.519531 158.355469 258.90625 158.617188 256.582031 C 158.617188 256.582031 158.886719 252.164063 158.59375 250.316406 C 158.59375 250.316406 158.730469 248.140625 156.050781 246.828125 C 156.050781 246.828125 152.90625 245.960938 151.78125 245.597656 L 151.757813 245.589844 C 150.144531 245.121094 147.441406 244.144531 147.441406 244.144531 C 144.570313 243 143.503906 244.960938 143.503906 244.960938 C 141.671875 247.097656 139.390625 250.265625 139.390625 250.265625 C 138.191406 252.277344 136.199219 251.546875 136.199219 251.546875 C 133.246094 250.59375 130.441406 249.058594 130.441406 249.058594 L 130.417969 249.058594 C 130.417969 249.058594 127.582031 247.582031 125.144531 245.652344 C 125.144531 245.652344 123.429688 244.414063 124.4375 242.292969 C 124.4375 242.292969 126.136719 238.21875 126.464844 236.378906 C 126.464844 236.378906 127.304688 234.371094 125.207031 232.25 C 125.207031 232.25 122.523438 230.398438 121.570313 229.675781 L 121.5625 229.667969 C 120.148438 228.777344 117.808594 227.09375 117.808594 227.09375 C 115.359375 225.21875 113.796875 226.792969 113.796875 226.792969 C 111.445313 228.347656 108.382813 230.765625 108.382813 230.765625 C 106.664063 232.375 104.964844 231.121094 104.964844 231.121094 C 102.386719 229.398438 100.105469 227.144531 100.105469 227.144531 L 100.097656 227.144531 C 100.097656 227.144531 96.484375 223.519531 94.9375 221.082031 L 95.039063 221.265625 L 111.914063 203.511719 C 139.613281 240.269531 191.058594 251.347656 231.84375 227.636719 C 243.183594 221.035156 252.601563 212.394531 259.890625 202.445313 L 276.28125 218.097656 L 275.867188 218.742188 C 273.964844 221.710938 270.390625 225.523438 270.390625 225.523438 L 270.382813 225.539063 C 270.382813 225.539063 268.15625 227.839844 265.640625 229.652344 C 265.640625 229.652344 263.972656 230.953125 262.21875 229.398438 C 262.21875 229.398438 258.777344 226.617188 257.105469 225.785156 C 257.105469 225.785156 255.410156 224.410156 252.78125 225.847656 C 252.78125 225.847656 250.257813 227.890625 249.304688 228.613281 L 249.304688 228.625 "/>
<path style=" stroke:none;fill-rule:nonzero;fill:rgb(13.699341%,12.199402%,12.5%);fill-opacity:1;" d="M 88.65625 46.679688 C 88.65625 46.679688 91.703125 43.160156 93.609375 38.617188 C 93.609375 38.617188 99.621094 24.386719 117.957031 24.386719 C 117.957031 24.386719 122.332031 24.917969 127.933594 22.472656 L 130.308594 21.394531 C 130.308594 21.394531 125.351563 25.421875 122.355469 28.636719 C 122.355469 28.636719 115.164063 38.316406 97.714844 42.277344 C 97.714844 42.277344 93.96875 43.304688 90.59375 45.597656 L 88.65625 46.679688 "/>
<path style=" stroke:none;fill-rule:nonzero;fill:rgb(13.699341%,12.199402%,12.5%);fill-opacity:1;" d="M 93.890625 28.144531 L 94.609375 26.929688 C 94.609375 26.929688 90.878906 29.882813 83.9375 34.273438 C 83.9375 34.273438 69.828125 40.867188 66.585938 58.453125 C 66.585938 58.453125 65.777344 61.117188 65.316406 67.714844 C 65.316406 67.714844 63.734375 73.601563 61.726563 76.535156 L 65.316406 73.957031 C 65.316406 73.957031 69.546875 71.152344 73.574219 69.644531 C 73.574219 69.644531 87.859375 65.699219 96.429688 57.183594 C 96.429688 57.183594 103.488281 50.355469 104.410156 48.855469 C 104.410156 48.855469 106.46875 46.527344 108.183594 45.019531 L 109.621094 43.589844 C 109.621094 43.589844 104.179688 46.160156 95.617188 48.046875 C 95.617188 48.046875 82.4375 50.117188 75.148438 61.117188 L 73.875 59.957031 C 73.875 59.957031 81.515625 52.203125 86.136719 43.304688 C 86.136719 43.304688 87.988281 39.714844 89.265625 36.472656 C 89.265625 36.472656 90.949219 31.660156 93.890625 28.144531 "/>
<path style=" stroke:none;fill-rule:nonzero;fill:rgb(13.699341%,12.199402%,12.5%);fill-opacity:1;" d="M 64.394531 48.734375 C 64.394531 48.734375 59.40625 57.183594 58.835938 65.507813 C 58.835938 65.507813 57.214844 80.4375 54.09375 88.066406 C 54.09375 88.066406 52.46875 91.769531 51.546875 93.859375 L 52.59375 94.199219 C 52.59375 94.199219 56.0625 85.40625 65.078125 79.390625 C 65.078125 79.390625 67.976563 77.1875 74.457031 75.578125 C 74.457031 75.578125 80.007813 73.847656 83.007813 70.480469 C 83.007813 70.480469 78.847656 76.726563 77.226563 79.277344 C 77.226563 79.277344 71.90625 92 56.636719 101.726563 C 56.636719 101.726563 47.734375 106.578125 44.144531 112.941406 C 44.144531 112.941406 45.765625 107.046875 43.675781 95.929688 C 43.675781 95.929688 39.285156 81.128906 47.382813 68.746094 C 47.382813 68.746094 51.203125 62.15625 59.535156 53.597656 C 59.535156 53.597656 63.695313 49.894531 64.394531 48.734375 "/>
<path style=" stroke:none;fill-rule:nonzero;fill:rgb(13.699341%,12.199402%,12.5%);fill-opacity:1;" d="M 37.664063 85.636719 C 37.664063 85.636719 35.234375 93.269531 37.546875 105.539063 C 37.546875 105.539063 39.402344 113.058594 39.632813 114.101563 C 39.632813 114.101563 41.832031 126.359375 38.824219 133.871094 L 40.207031 133.871094 C 40.207031 133.871094 40.675781 124.511719 50.164063 115.941406 C 50.164063 115.941406 64.742188 102.519531 67.398438 99.40625 C 67.398438 99.40625 62.996094 110.738281 60.914063 117.800781 C 60.914063 117.800781 57.675781 130.0625 46.113281 141.632813 C 46.113281 141.632813 38.132813 148.570313 38.59375 160.371094 L 37.433594 160.371094 C 37.433594 160.371094 37.671875 154.941406 31.652344 142.902344 C 31.652344 142.902344 25.871094 132.601563 25.394531 118.722656 C 25.394531 118.722656 25.746094 106.460938 32.34375 96.515625 C 32.34375 96.515625 36.164063 88.996094 37.664063 85.636719 "/>
<path style=" stroke:none;fill-rule:nonzero;fill:rgb(13.699341%,12.199402%,12.5%);fill-opacity:1;" d="M 21.695313 132.953125 C 21.695313 132.953125 22.742188 143.941406 29.792969 155.625 C 29.792969 155.625 40.09375 171.015625 39.863281 178.414063 L 40.90625 178.304688 C 40.90625 178.304688 38.824219 165.234375 44.265625 156.664063 C 44.265625 156.664063 47.148438 150.882813 53.515625 142.789063 C 53.515625 142.789063 58.835938 135.5 59.644531 132.839844 C 59.644531 132.839844 59.183594 141.511719 58.945313 147.0625 C 58.945313 147.0625 57.914063 164.882813 52.125 175.753906 C 52.125 175.753906 46.113281 188.015625 46.335938 196.585938 C 46.335938 196.585938 46.113281 201.554688 47.613281 205.375 C 47.613281 205.375 41.59375 197.617188 35.925781 193.335938 C 35.925781 193.335938 24.710938 185.355469 20.203125 168.464844 C 20.203125 168.464844 16.960938 153.433594 20.074219 141.511719 L 21.695313 132.953125 "/>
<path style=" stroke:none;fill-rule:nonzero;fill:rgb(13.699341%,12.199402%,12.5%);fill-opacity:1;" d="M 23.550781 186.863281 C 23.550781 186.863281 26.09375 197.964844 38.007813 206.296875 C 38.007813 206.296875 40.90625 208.148438 42.753906 209.65625 C 42.753906 209.65625 51.195313 215.675781 55.476563 225.609375 L 56.867188 224.6875 C 56.867188 224.6875 51.433594 219.71875 50.964844 206.296875 C 50.964844 206.296875 51.546875 196.457031 54.554688 190.214844 C 54.554688 190.214844 58.597656 179.464844 58.835938 174.015625 C 58.835938 174.015625 60.226563 180.035156 62.195313 186.277344 C 62.195313 186.277344 65.886719 197.503906 65.777344 208.148438 C 65.777344 208.148438 65.664063 213.816406 63.933594 221.570313 C 63.933594 221.570313 61.035156 236.601563 71.097656 246.207031 L 69.828125 247.25 C 69.828125 247.25 66.816406 242.160156 62.542969 241 C 62.542969 241 50.734375 238.808594 40.90625 230.707031 C 40.90625 230.707031 32.464844 223.070313 28.644531 210.464844 C 28.644531 210.464844 24.015625 195.886719 23.550781 186.863281 "/>
<path style=" stroke:none;fill-rule:nonzero;fill:rgb(13.699341%,12.199402%,12.5%);fill-opacity:1;" d="M 42.644531 238.339844 C 42.644531 238.339844 46.113281 244.589844 59.757813 247.597656 C 59.757813 247.597656 77.578125 252.109375 85.089844 261.941406 L 85.90625 260.789063 C 85.90625 260.789063 76.195313 252.6875 71.796875 238.457031 C 71.796875 238.457031 69.367188 230.707031 70.636719 220.296875 C 70.636719 220.296875 70.746094 214.628906 70.066406 210.808594 C 70.066406 210.808594 73.40625 218.097656 76.65625 221.917969 C 76.65625 221.917969 86.25 231.519531 90.078125 242.96875 C 90.078125 242.96875 92.609375 250.609375 94.238281 256.851563 C 94.238281 256.851563 95.96875 271.660156 109.039063 273.398438 C 109.039063 273.398438 118.761719 275.011719 126.859375 273.273438 C 126.859375 273.273438 106.148438 283.683594 80.9375 276.285156 C 80.9375 276.285156 71.335938 274.433594 57.105469 258.589844 C 57.105469 258.589844 46.464844 247.140625 42.644531 238.339844 "/>
<path style=" stroke:none;fill-rule:nonzero;fill:rgb(13.699341%,12.199402%,12.5%);fill-opacity:1;" d="M 282.167969 46.679688 C 282.167969 46.679688 279.117188 43.160156 277.210938 38.617188 C 277.210938 38.617188 271.199219 24.386719 252.871094 24.386719 C 252.871094 24.386719 248.496094 24.917969 242.894531 22.472656 L 240.523438 21.394531 C 240.523438 21.394531 245.480469 25.421875 248.464844 28.636719 C 248.464844 28.636719 255.660156 38.316406 273.105469 42.277344 C 273.105469 42.277344 276.863281 43.304688 280.230469 45.597656 L 282.167969 46.679688 "/>
<path style=" stroke:none;fill-rule:nonzero;fill:rgb(13.699341%,12.199402%,12.5%);fill-opacity:1;" d="M 276.933594 28.144531 L 276.210938 26.929688 C 276.210938 26.929688 279.949219 29.882813 286.890625 34.273438 C 286.890625 34.273438 301.003906 40.867188 304.234375 58.453125 C 304.234375 58.453125 305.046875 61.117188 305.515625 67.714844 C 305.515625 67.714844 307.09375 73.601563 309.101563 76.535156 L 305.515625 73.957031 C 305.515625 73.957031 301.273438 71.152344 297.253906 69.644531 C 297.253906 69.644531 282.96875 65.699219 274.394531 57.183594 C 274.394531 57.183594 267.339844 50.355469 266.410156 48.855469 C 266.410156 48.855469 264.363281 46.527344 262.640625 45.019531 L 261.210938 43.589844 C 261.210938 43.589844 266.648438 46.160156 275.203125 48.046875 C 275.203125 48.046875 288.386719 50.117188 295.675781 61.117188 L 296.953125 59.957031 C 296.953125 59.957031 289.3125 52.203125 284.683594 43.304688 C 284.683594 43.304688 282.832031 39.714844 281.5625 36.472656 C 281.5625 36.472656 279.871094 31.660156 276.933594 28.144531 "/>
<path style=" stroke:none;fill-rule:nonzero;fill:rgb(13.699341%,12.199402%,12.5%);fill-opacity:1;" d="M 306.433594 48.734375 C 306.433594 48.734375 311.414063 57.183594 311.984375 65.507813 C 311.984375 65.507813 313.613281 80.4375 316.734375 88.066406 C 316.734375 88.066406 318.355469 91.769531 319.28125 93.859375 L 318.234375 94.199219 C 318.234375 94.199219 314.757813 85.40625 305.742188 79.390625 C 305.742188 79.390625 302.847656 77.1875 296.371094 75.578125 C 296.371094 75.578125 290.820313 73.847656 287.8125 70.480469 C 287.8125 70.480469 291.972656 76.726563 293.59375 79.277344 C 293.59375 79.277344 298.914063 92 314.1875 101.726563 C 314.1875 101.726563 323.097656 106.578125 326.683594 112.941406 C 326.683594 112.941406 325.066406 107.046875 327.144531 95.929688 C 327.144531 95.929688 331.546875 81.128906 323.445313 68.746094 C 323.445313 68.746094 319.617188 62.15625 311.292969 53.597656 C 311.292969 53.597656 307.132813 49.894531 306.433594 48.734375 "/>
<path style=" stroke:none;fill-rule:nonzero;fill:rgb(13.699341%,12.199402%,12.5%);fill-opacity:1;" d="M 333.164063 85.636719 C 333.164063 85.636719 335.597656 93.269531 333.277344 105.539063 C 333.277344 105.539063 331.433594 113.058594 331.195313 114.101563 C 331.195313 114.101563 328.996094 126.359375 332.007813 133.871094 L 330.613281 133.871094 C 330.613281 133.871094 330.152344 124.511719 320.664063 115.941406 C 320.664063 115.941406 306.09375 102.519531 303.425781 99.40625 C 303.425781 99.40625 307.824219 110.738281 309.90625 117.800781 C 309.90625 117.800781 313.144531 130.0625 324.714844 141.632813 C 324.714844 141.632813 332.6875 148.570313 332.230469 160.371094 L 333.386719 160.371094 C 333.386719 160.371094 333.164063 154.941406 339.167969 142.902344 C 339.167969 142.902344 344.957031 132.601563 345.425781 118.722656 C 345.425781 118.722656 345.074219 106.460938 338.484375 96.515625 C 338.484375 96.515625 334.65625 88.996094 333.164063 85.636719 "/>
<path style=" stroke:none;fill-rule:nonzero;fill:rgb(13.699341%,12.199402%,12.5%);fill-opacity:1;" d="M 349.125 132.953125 C 349.125 132.953125 348.078125 143.941406 341.027344 155.625 C 341.027344 155.625 330.734375 171.015625 330.957031 178.414063 L 329.925781 178.304688 C 329.925781 178.304688 332.007813 165.234375 326.558594 156.664063 C 326.558594 156.664063 323.675781 150.882813 317.316406 142.789063 C 317.316406 142.789063 311.984375 135.5 311.175781 132.839844 C 311.175781 132.839844 311.644531 141.511719 311.875 147.0625 C 311.875 147.0625 312.914063 164.882813 318.695313 175.753906 C 318.695313 175.753906 324.714844 188.015625 324.484375 196.585938 C 324.484375 196.585938 324.714844 201.554688 323.214844 205.375 C 323.214844 205.375 329.226563 197.617188 334.894531 193.335938 C 334.894531 193.335938 346.109375 185.355469 350.636719 168.464844 C 350.636719 168.464844 353.867188 153.433594 350.746094 141.511719 L 349.125 132.953125 "/>
<path style=" stroke:none;fill-rule:nonzero;fill:rgb(13.699341%,12.199402%,12.5%);fill-opacity:1;" d="M 347.269531 186.863281 C 347.269531 186.863281 344.726563 197.964844 332.816406 206.296875 C 332.816406 206.296875 329.925781 208.148438 328.066406 209.65625 C 328.066406 209.65625 319.632813 215.675781 315.34375 225.609375 L 313.964844 224.6875 C 313.964844 224.6875 319.394531 219.71875 319.855469 206.296875 C 319.855469 206.296875 319.28125 196.457031 316.273438 190.214844 C 316.273438 190.214844 312.226563 179.464844 311.984375 174.015625 C 311.984375 174.015625 310.605469 180.035156 308.636719 186.277344 C 308.636719 186.277344 304.933594 197.503906 305.046875 208.148438 C 305.046875 208.148438 305.164063 213.816406 306.894531 221.570313 C 306.894531 221.570313 309.792969 236.601563 299.726563 246.207031 L 301.003906 247.25 C 301.003906 247.25 304.011719 242.160156 308.292969 241 C 308.292969 241 320.09375 238.808594 329.925781 230.707031 C 329.925781 230.707031 338.375 223.070313 342.1875 210.464844 C 342.1875 210.464844 346.808594 195.886719 347.269531 186.863281 "/>
<path style=" stroke:none;fill-rule:nonzero;fill:rgb(13.699341%,12.199402%,12.5%);fill-opacity:1;" d="M 328.1875 238.339844 C 328.1875 238.339844 324.714844 244.589844 311.0625 247.597656 C 311.0625 247.597656 293.242188 252.109375 285.730469 261.941406 L 284.921875 260.789063 C 284.921875 260.789063 294.632813 252.6875 299.027344 238.457031 C 299.027344 238.457031 301.464844 230.707031 300.183594 220.296875 C 300.183594 220.296875 300.074219 214.628906 300.765625 210.808594 C 300.765625 210.808594 297.414063 218.097656 294.171875 221.917969 C 294.171875 221.917969 284.574219 231.519531 280.761719 242.96875 C 280.761719 242.96875 278.210938 250.609375 276.59375 256.851563 C 276.59375 256.851563 274.851563 271.660156 261.78125 273.398438 C 261.78125 273.398438 252.070313 275.011719 243.96875 273.273438 C 243.96875 273.273438 264.679688 283.683594 289.894531 276.285156 C 289.894531 276.285156 299.492188 274.433594 313.726563 258.589844 C 313.726563 258.589844 324.367188 247.140625 328.1875 238.339844 "/>
<path style=" stroke:none;fill-rule:nonzero;fill:rgb(13.699341%,12.199402%,12.5%);fill-opacity:1;" d="M 219.40625 302.375 C 219.40625 302.375 203.621094 281.207031 179.667969 276.347656 C 179.667969 276.347656 161.792969 271.3125 138.191406 277.734375 C 138.191406 277.734375 124.660156 281.546875 118.761719 283.113281 C 118.761719 283.113281 94.46875 289.703125 79.023438 280.160156 C 79.023438 280.160156 92.902344 297.867188 119.625 299.597656 C 119.625 299.597656 136.636719 300.472656 151.550781 287.449219 C 151.550781 287.449219 165.269531 274.089844 182.273438 279.125 C 182.273438 279.125 202.054688 283.976563 212.117188 304.109375 L 219.40625 302.375 "/>
<path style=" stroke:none;fill-rule:nonzero;fill:rgb(13.699341%,12.199402%,12.5%);fill-opacity:1;" d="M 152.246094 302.375 C 152.246094 302.375 168.042969 281.207031 191.980469 276.347656 C 191.980469 276.347656 209.855469 271.3125 233.453125 277.734375 C 233.453125 277.734375 246.988281 281.546875 252.894531 283.113281 C 252.894531 283.113281 277.195313 289.703125 292.632813 280.160156 C 292.632813 280.160156 278.75 297.867188 252.019531 299.597656 C 252.019531 299.597656 235.019531 300.472656 220.097656 287.449219 C 220.097656 287.449219 206.382813 274.089844 189.371094 279.125 C 189.371094 279.125 169.601563 283.976563 159.539063 304.109375 L 152.246094 302.375 "/>
<path style=" stroke:none;fill-rule:nonzero;fill:rgb(13.699341%,12.199402%,12.5%);fill-opacity:1;" d="M 184.140625 213.609375 L 160.238281 213.609375 L 160.238281 210.203125 C 160.238281 210.203125 174.601563 213.609375 176.492188 198.109375 L 176.492188 147.871094 L 176.484375 147.835938 L 176.484375 94.160156 C 174.59375 82.058594 160.230469 85.464844 160.230469 85.464844 L 160.230469 82.058594 L 208.289063 82.058594 L 208.289063 85.464844 C 208.289063 85.464844 193.925781 82.058594 192.042969 94.160156 L 192.042969 147.835938 L 192.023438 147.871094 L 192.023438 198.109375 C 193.925781 213.609375 208.28125 210.203125 208.28125 210.203125 L 208.28125 213.609375 L 184.140625 213.609375 "/>
<path style=" stroke:none;fill-rule:nonzero;fill:rgb(13.699341%,12.199402%,12.5%);fill-opacity:1;" d="M 221.90625 113.757813 L 221.90625 110.660156 C 221.710938 107.578125 218.707031 107.667969 217.421875 107.492188 C 205.90625 106.722656 205.621094 125.558594 205.621094 125.558594 L 202.023438 125.558594 L 202.023438 102.855469 L 227.5 102.855469 L 228.644531 102.847656 L 254.109375 102.847656 L 254.109375 125.550781 L 250.527344 125.550781 C 250.527344 125.550781 250.234375 106.722656 238.710938 107.492188 C 237.441406 107.660156 234.4375 107.570313 234.234375 110.644531 L 234.234375 177.683594 C 235.726563 187.691406 247.097656 185.492188 247.097656 185.492188 L 247.097656 187.691406 L 209.050781 187.691406 L 209.050781 185.492188 C 209.050781 185.492188 220.433594 187.691406 221.925781 177.683594 L 221.925781 113.988281 L 221.90625 113.757813 "/>
<path style=" stroke:none;fill-rule:nonzero;fill:rgb(13.699341%,12.199402%,12.5%);fill-opacity:1;" d="M 152.269531 144.429688 C 152.269531 164.085938 148.832031 182.25 137.03125 182.25 C 124.769531 182.25 121.804688 164.085938 121.804688 144.429688 C 121.804688 124.785156 125.941406 108.855469 137.03125 108.855469 C 149.003906 108.855469 152.269531 124.785156 152.269531 144.429688 Z M 137.503906 102.1875 C 117.109375 102.1875 109.507813 121.238281 109.507813 144.753906 C 109.507813 168.257813 116.296875 187.324219 137.503906 187.324219 C 157.894531 187.324219 165.492188 168.257813 165.492188 144.753906 C 165.492188 121.238281 159.507813 102.1875 137.503906 102.1875 "/>
</g>
</svg>
