<svg id="Layer_1" data-name="Layer 1" xmlns="http://www.w3.org/2000/svg" viewBox="0 0 202.39 202.4"><defs><style>.cls-1{fill:#19486a;}.cls-2{fill:#00689d;}.cls-3{fill:#56c02b;}.cls-4{fill:#0a97d9;}.cls-5{fill:#3f7e44;}.cls-6{fill:#bf8b2e;}.cls-7{fill:#fd9d24;}.cls-8{fill:#dd1367;}.cls-9{fill:#fd6925;}.cls-10{fill:#a21942;}.cls-11{fill:#fcc30b;}.cls-12{fill:#26bde2;}.cls-13{fill:#ff3a21;}.cls-14{fill:#c51623;}.cls-15{fill:#4d9f38;}.cls-16{fill:#dda63a;}.cls-17{fill:#e4243c;}</style></defs><path class="cls-1" d="M98.94,60.13V27.45A73.05,73.05,0,0,0,75.68,32l12.24,30.3a41,41,0,0,1,11-2.14"/><path class="cls-2" d="M83.73,64,71.49,33.65A68.58,68.58,0,0,0,52.58,45.7L74.87,69.61A40.53,40.53,0,0,1,83.73,64"/><path class="cls-3" d="M71.58,72.69,49.27,48.78a68.64,68.64,0,0,0-13.33,18L65.32,81.13a41.16,41.16,0,0,1,6.26-8.44"/><path class="cls-4" d="M63.33,85.19,34,70.86a68.41,68.41,0,0,0-6,21.61l32.56,2.85a40.52,40.52,0,0,1,2.8-10.13"/><path class="cls-5" d="M60.11,101.14c0-.44,0-.88,0-1.32L27.57,97a68.54,68.54,0,0,0,2.15,22.32l31.43-9a41.1,41.1,0,0,1-1-9.14"/><path class="cls-6" d="M62.39,114.62l-31.42,9a73.38,73.38,0,0,0,10.76,21.11l25.76-20.13a40.76,40.76,0,0,1-5.1-10"/><path class="cls-7" d="M70.27,128.17,44.5,148.3a68.27,68.27,0,0,0,16.8,14.86l16.83-28a41.41,41.41,0,0,1-7.86-7"/><path class="cls-8" d="M82,137.47l-16.83,28a68.59,68.59,0,0,0,21,7.85l5.68-32.2A40.73,40.73,0,0,1,82,137.47"/><path class="cls-9" d="M101.19,142.22a41.72,41.72,0,0,1-4.9-.3l-5.67,32.2a67.84,67.84,0,0,0,22.42-.19l-6.24-32.09a43.08,43.08,0,0,1-5.61.38"/><path class="cls-10" d="M111.24,141l6.23,32.09a68.78,68.78,0,0,0,20.87-8.22L121,137.13a40.66,40.66,0,0,1-9.78,3.85"/><path class="cls-11" d="M132.59,127.63a41.48,41.48,0,0,1-7.75,7.1l17.32,27.72A68.15,68.15,0,0,0,158.7,147.3Z"/><path class="cls-12" d="M140.23,113.94A40.71,40.71,0,0,1,135.31,124l26.1,19.67a73.54,73.54,0,0,0,10.39-21.3Z"/><path class="cls-13" d="M174.73,95.68,142.22,99.1q.06,1,.06,2a41.09,41.09,0,0,1-.88,8.44L173,118a68.43,68.43,0,0,0,1.76-22.36"/><path class="cls-14" d="M141.75,94.61l32.5-3.42a68.53,68.53,0,0,0-6.36-21.5L138.77,84.53a40.75,40.75,0,0,1,3,10.08"/><path class="cls-15" d="M136.71,80.51l29.13-14.84a68.57,68.57,0,0,0-13.66-17.79L130.32,72.17a41.22,41.22,0,0,1,6.39,8.34"/><path class="cls-16" d="M127,69.16l21.87-24.3a68.48,68.48,0,0,0-19.12-11.72L118,63.66a40.84,40.84,0,0,1,9,5.5"/><path class="cls-17" d="M113.79,62,125.5,31.53a68.3,68.3,0,0,0-22-4.09V60.13A40.67,40.67,0,0,1,113.79,62"/><path class="cls-14" d="M117,80.22c-7.56.12-14.83,1-20.74,7a1.4,1.4,0,0,0-.23.3,1.82,1.82,0,0,0-.23-.3c-5.92-5.93-13.19-6.84-20.74-7v35.25c7.55.3,14.82,1.27,20.92,6.67a.08.08,0,0,1,0,0h0l0,0c6.1-5.4,13.37-6.37,20.93-6.67ZM96,116.71a3.59,3.59,0,1,1,3.59-3.59A3.59,3.59,0,0,1,96,116.71Zm7.32-8.41a1.73,1.73,0,0,1-2.25.14,8.55,8.55,0,0,0-10.15,0,1.73,1.73,0,0,1-2.25-.14h0a1.71,1.71,0,0,1,.21-2.59,11.91,11.91,0,0,1,14.23,0A1.71,1.71,0,0,1,103.32,108.3Zm4.52-4.53h0a1.71,1.71,0,0,1-2.29.12,14.86,14.86,0,0,0-19.11,0,1.71,1.71,0,0,1-2.29-.12h0a1.71,1.71,0,0,1,.1-2.51,18.29,18.29,0,0,1,23.49,0A1.71,1.71,0,0,1,107.84,103.77Zm4.53-4.52h0a1.72,1.72,0,0,1-2.34.07,21.26,21.26,0,0,0-28.07,0,1.72,1.72,0,0,1-2.34-.07h0a1.7,1.7,0,0,1,.07-2.48,24.66,24.66,0,0,1,32.61,0A1.7,1.7,0,0,1,112.37,99.25Z"/><path class="cls-14" d="M118.28,84.45v27.09c0,5.06,0,5-4.66,5.37-5.26.38-10.36,1.37-14.86,4.82A55.77,55.77,0,0,1,121.28,120V84.72Z"/><path class="cls-14" d="M73.71,111.54V84.45l-3,.27V120a55.77,55.77,0,0,1,22.52,1.73c-4.5-3.45-9.6-4.44-14.86-4.82C73.72,116.57,73.71,116.6,73.71,111.54Z"/><path class="cls-14" d="M127,84l4.64,0c0,.59,0,13.07,0,13.72q0,7.35,0,14.7a4.36,4.36,0,0,1-.08.81q-.85,4.09-1.73,8.17c-.14.67-.47.91-.75.56a1.32,1.32,0,0,1-.23-.55c-.6-2.77-1.2-5.55-1.79-8.32a3.43,3.43,0,0,1,0-.56q0-8.22,0-16.45C127,96,127,84.08,127,84Zm4.09,29,0-.14c-.14.06-.31.06-.44.2s-.33.15-.51,0a1.1,1.1,0,0,0-1.66,0c-.09.09-.24,0-.35,0s-.37-.34-.6-.13l1.21,5.66H130Z"/><path class="cls-14" d="M131.69,83H127c0-.73,0-1.5,0-2.26,0-.44.18-.46.34-.45h4c.18,0,.29.12.29.51C131.68,81.52,131.68,82.27,131.69,83Z"/></svg>